<?xml version="1.0" encoding="utf-8"?>
<!-- Generator: Adobe Illustrator 24.0.0, SVG Export Plug-In . SVG Version: 6.00 Build 0)  -->
<svg version="1.1" id="Capa_1" xmlns="http://www.w3.org/2000/svg" xmlns:xlink="http://www.w3.org/1999/xlink" x="0px" y="0px"
	 viewBox="0 0 800.71 213.45" style="enable-background:new 0 0 800.71 213.45;" xml:space="preserve">
<style type="text/css">
	.st0{fill:#1D1D1B;}
</style>
<g>
	<g>
		<path class="st0" d="M115.18,80.23c-1.34,2.14-2.9,4.64-4.68,7.49c-1.52,2.41-3.28,5.37-5.28,8.89c-2.01,3.52-4.3,7.56-6.89,12.1
			h-2.27c2.14-4.81,3.25-9.14,3.34-12.97c0.09-1.69-0.07-3.36-0.47-5.01c-0.4-1.65-1.14-3.14-2.21-4.48
			c-1.07-1.34-2.59-2.45-4.55-3.34c-1.96-0.89-4.46-1.47-7.49-1.74c-4.64-0.45-9.23,0.02-13.78,1.4c-4.55,1.38-8.43,3.23-11.64,5.55
			c-3.21,2.32-5.51,4.88-6.89,7.69c-1.38,2.81-1.27,5.46,0.33,7.96c0.89,1.43,2.45,2.99,4.68,4.68c2.23,1.7,4.75,3.54,7.56,5.55
			c2.81,2.01,5.66,4.15,8.56,6.42c2.9,2.27,5.46,4.68,7.69,7.22c2.23,2.54,3.95,5.24,5.15,8.09c1.2,2.85,1.49,5.84,0.87,8.96
			c-1.07,5.17-3.39,9.7-6.96,13.58c-3.57,3.88-7.76,7.02-12.57,9.43c-4.81,2.41-9.94,4.04-15.38,4.88
			c-5.44,0.85-10.61,0.82-15.52-0.07c-3.57-0.62-6.75-1.27-9.56-1.94c-2.81-0.67-5.33-1.14-7.56-1.4c-2.23-0.27-4.26-0.18-6.09,0.27
			c-1.83,0.45-3.59,1.47-5.28,3.08c-0.36,0.36-0.89,0.45-1.6,0.27c-0.27,0-0.58-0.09-0.94-0.27c1.87-2.5,4.01-5.35,6.42-8.56
			c2.05-2.67,4.48-5.88,7.29-9.63c2.81-3.75,5.91-7.89,9.3-12.44c0.09,0,0.49,0.09,1.2,0.27c0.35,0.09,0.71,0.18,1.07,0.27
			c-2.67,4.9-4.28,9.36-4.81,13.37c-0.27,1.7-0.31,3.39-0.13,5.08c0.18,1.69,0.69,3.26,1.54,4.68c0.85,1.43,2.14,2.63,3.88,3.61
			c1.74,0.98,4.03,1.65,6.89,2.01c5.71,0.62,11.12,0.11,16.25-1.54c5.13-1.65,9.5-3.92,13.11-6.82c3.61-2.9,6.29-6.13,8.02-9.7
			c1.74-3.56,2.03-7,0.87-10.3c-0.8-2.5-2.23-4.79-4.28-6.89c-2.05-2.09-4.35-4.12-6.89-6.08c-2.54-1.96-5.13-3.88-7.76-5.75
			c-2.63-1.87-4.97-3.88-7.02-6.02c-2.05-2.14-3.63-4.46-4.75-6.95c-1.12-2.5-1.4-5.3-0.87-8.43c0.98-4.99,3.14-9.14,6.49-12.44
			c3.34-3.3,7.27-5.82,11.77-7.56c4.5-1.74,9.27-2.76,14.31-3.08c5.04-0.31,9.65,0.07,13.84,1.14c4.28,1.07,7.67,1.65,10.17,1.74
			c2.5,0.09,4.46,0,5.88-0.27c1.69-0.36,2.9-0.94,3.61-1.74L115.18,80.23z"/>
		<path class="st0" d="M174.16,79.56l-2.94,14.44l-1.74,0.4c0-2.23-0.36-4.28-1.07-6.15c-0.53-1.52-1.49-2.9-2.88-4.15
			c-1.38-1.25-3.46-1.87-6.22-1.87h-23.27l-14.31,35.04c2.5-3.66,5.42-5.95,8.76-6.89c3.34-0.94,7.42-0.33,12.24,1.81
			c2.58,1.07,5.04,1.81,7.36,2.21c2.32,0.4,4.35,0.36,6.09-0.13c1.74-0.49,3.12-1.47,4.15-2.94c1.02-1.47,1.58-3.54,1.67-6.22
			l0.67,0.54c-0.09,2.05-0.4,3.97-0.94,5.75c-0.45,1.52-1.14,3.06-2.07,4.62c-0.94,1.56-2.3,2.74-4.08,3.54
			c-0.62,1.87-1.45,4.37-2.47,7.49c-1.03,3.12-2.03,6.51-3.01,10.16c-0.98,3.66-1.92,7.4-2.81,11.24c-0.89,3.83-1.52,7.4-1.87,10.7
			c-0.36,3.3-0.42,6.11-0.2,8.43c0.22,2.32,0.96,3.79,2.21,4.41l-0.54,1.2H81.74l0.54-1.34c1.87-0.27,3.74-1.02,5.62-2.27
			c1.69-1.07,3.48-2.72,5.35-4.95c1.87-2.23,3.65-5.35,5.35-9.36l23.54-57.51c1.69-4.1,2.47-7.27,2.34-9.5
			c-0.13-2.23-0.56-3.88-1.27-4.95c-0.89-1.25-2.19-1.96-3.88-2.14l0.67-1.6H174.16z M143.13,118.35c-2.76-1.42-5.44-2.29-8.02-2.61
			c-2.59-0.31-4.88-0.31-6.89,0c-2.01,0.31-3.68,0.85-5.02,1.6c-1.34,0.76-2.14,1.49-2.41,2.21l-20.86,51.09h17.12
			c6.15,0,11.03-0.85,14.65-2.54c3.61-1.69,6.57-4.5,8.89-8.43c2.32-3.92,4.32-9.09,6.02-15.51c1.69-6.42,3.7-14.4,6.02-23.94
			c-1.25,0.18-2.67,0.16-4.28-0.07C146.74,119.94,145,119.33,143.13,118.35z"/>
		<path class="st0" d="M223.78,111.8c4.46,0,8.27,0.78,11.44,2.34c3.16,1.56,5.62,3.61,7.36,6.15c1.74,2.54,2.74,5.46,3.01,8.76
			c0.27,3.3-0.31,6.69-1.74,10.17c-2.41,5.88-5.51,10.97-9.3,15.25c-3.79,4.28-7.91,7.8-12.37,10.57
			c-4.46,2.76-9.01,4.81-13.64,6.15c-4.64,1.34-9.05,2.01-13.24,2.01h-43.87l0.54-1.34c1.87-0.27,3.79-1.02,5.75-2.27
			c1.6-1.16,3.36-2.85,5.28-5.08c1.92-2.23,3.68-5.39,5.28-9.5l23-57.11c1.69-4.01,2.5-7.13,2.41-9.36
			c-0.09-2.23-0.53-3.88-1.34-4.95c-0.8-1.25-2.05-2.01-3.74-2.27l0.67-1.74h40.53c2.23,0,4.39,0.31,6.49,0.94
			c2.09,0.63,3.86,1.58,5.28,2.88c1.43,1.29,2.41,2.92,2.94,4.88c0.54,1.96,0.36,4.28-0.53,6.96c-0.8,2.23-2.03,4.26-3.68,6.08
			c-1.65,1.83-3.43,3.43-5.35,4.82c-1.92,1.38-3.88,2.54-5.88,3.48C227.06,110.53,225.3,111.26,223.78,111.8z M235.02,139.75
			c1.52-3.66,2.32-7.09,2.41-10.3c0.09-3.21-0.49-6.02-1.74-8.43c-1.25-2.41-3.23-4.3-5.95-5.68c-2.72-1.38-6.22-2.07-10.5-2.07
			h-26.48l-23.14,57.24h24.07c3.66,0,7.42-0.51,11.3-1.54c3.88-1.02,7.67-2.74,11.37-5.15c3.7-2.41,7.16-5.57,10.37-9.5
			C229.93,150.41,232.7,145.55,235.02,139.75z M205.32,82.24l-11.5,28.49h26.48c2.41-0.36,4.72-1.16,6.95-2.41
			c1.87-0.98,3.77-2.5,5.68-4.55c1.92-2.05,3.5-4.9,4.75-8.56c0.53-1.61,0.78-3.16,0.74-4.68c-0.05-1.51-0.47-2.9-1.27-4.15
			c-0.8-1.25-2.1-2.25-3.88-3.01c-1.78-0.76-4.19-1.14-7.22-1.14H205.32z"/>
		<path class="st0" d="M302.56,155.4c0,4.01,0.47,7.11,1.4,9.29c0.94,2.19,1.98,3.77,3.14,4.75c1.16,0.98,2.72,1.7,4.68,2.14
			l-0.8,1.6h-35.58v-1.6c1.96,0,3.66-0.09,5.08-0.27c1.43-0.18,2.99-0.58,4.68-1.2c1.69-0.62,3.25-1.52,4.68-2.67
			c1.43-1.16,2.61-2.72,3.54-4.68c0.94-1.96,1.4-4.41,1.4-7.36v-18.59c-0.62,1.16-1.52,2.43-2.67,3.81
			c-1.16,1.38-2.59,2.54-4.28,3.48c-1.69,0.94-3.66,1.45-5.89,1.54c-2.23,0.09-4.68-0.54-7.36-1.87c-3.3-1.78-6.18-2.99-8.63-3.61
			c-2.45-0.62-4.7-0.69-6.75-0.2c-2.05,0.49-4.06,1.56-6.02,3.21c-1.96,1.65-4.1,3.9-6.42,6.75l-6.15,7.76
			c-1.43,1.87-2.43,3.48-3.01,4.81c-0.58,1.34-0.83,2.52-0.74,3.54c0.09,1.03,0.44,1.87,1.07,2.54c0.62,0.67,1.34,1.23,2.14,1.67
			c1.96,0.89,4.73,1.34,8.29,1.34l-1.6,1.6h-30.9l1.47-1.6c1.96-0.27,4.1-0.98,6.42-2.14c2.05-1.07,4.43-2.67,7.16-4.81
			c2.72-2.14,5.68-5.22,8.89-9.23l48.68-59.65c2.94-3.65,4.73-6.51,5.35-8.56c0.62-2.05,0.74-3.57,0.33-4.55
			c-0.4-0.98-1.49-1.74-3.28-2.27v-0.8h11.64V155.4z M275.41,139.89c1.96,1.34,4.08,2.03,6.35,2.07c2.27,0.05,4.37-0.27,6.29-0.94
			c1.92-0.67,3.52-1.56,4.81-2.68c1.29-1.11,1.94-2.12,1.94-3.01V90.4l-41.06,51.09c3.12-3.12,6.53-4.95,10.23-5.48
			C267.67,135.47,271.48,136.77,275.41,139.89z"/>
		<path class="st0" d="M423.87,80.23c-1.34,2.14-2.9,4.64-4.68,7.49c-1.52,2.41-3.28,5.37-5.28,8.89c-2.01,3.52-4.3,7.56-6.89,12.1
			h-2.27c2.14-4.81,3.25-9.14,3.34-12.97c0.09-1.69-0.07-3.36-0.47-5.01c-0.4-1.65-1.14-3.14-2.21-4.48
			c-1.07-1.34-2.59-2.45-4.55-3.34c-1.96-0.89-4.46-1.47-7.49-1.74c-4.64-0.45-9.23,0.02-13.78,1.4c-4.55,1.38-8.43,3.23-11.64,5.55
			c-3.21,2.32-5.51,4.88-6.89,7.69c-1.38,2.81-1.27,5.46,0.33,7.96c0.89,1.43,2.45,2.99,4.68,4.68c2.23,1.7,4.75,3.54,7.56,5.55
			c2.81,2.01,5.66,4.15,8.56,6.42c2.9,2.27,5.46,4.68,7.69,7.22c2.23,2.54,3.95,5.24,5.15,8.09c1.2,2.85,1.49,5.84,0.87,8.96
			c-1.07,5.17-3.39,9.7-6.96,13.58c-3.57,3.88-7.76,7.02-12.57,9.43c-4.81,2.41-9.94,4.04-15.38,4.88
			c-5.44,0.85-10.61,0.82-15.52-0.07c-3.57-0.62-6.75-1.27-9.56-1.94c-2.81-0.67-5.33-1.14-7.56-1.4c-2.23-0.27-4.26-0.18-6.09,0.27
			c-1.83,0.45-3.59,1.47-5.28,3.08c-0.36,0.36-0.89,0.45-1.6,0.27c-0.27,0-0.58-0.09-0.94-0.27c1.87-2.5,4.01-5.35,6.42-8.56
			c2.05-2.67,4.48-5.88,7.29-9.63c2.81-3.75,5.91-7.89,9.3-12.44c0.09,0,0.49,0.09,1.2,0.27c0.35,0.09,0.71,0.18,1.07,0.27
			c-2.67,4.9-4.28,9.36-4.81,13.37c-0.27,1.7-0.31,3.39-0.13,5.08c0.18,1.69,0.69,3.26,1.54,4.68c0.85,1.43,2.14,2.63,3.88,3.61
			c1.74,0.98,4.03,1.65,6.89,2.01c5.71,0.62,11.12,0.11,16.25-1.54c5.13-1.65,9.5-3.92,13.11-6.82c3.61-2.9,6.29-6.13,8.02-9.7
			c1.74-3.56,2.03-7,0.87-10.3c-0.8-2.5-2.23-4.79-4.28-6.89c-2.05-2.09-4.35-4.12-6.89-6.08c-2.54-1.96-5.13-3.88-7.76-5.75
			c-2.63-1.87-4.97-3.88-7.02-6.02c-2.05-2.14-3.63-4.46-4.75-6.95c-1.12-2.5-1.4-5.3-0.87-8.43c0.98-4.99,3.14-9.14,6.49-12.44
			c3.34-3.3,7.27-5.82,11.77-7.56c4.5-1.74,9.27-2.76,14.31-3.08c5.04-0.31,9.65,0.07,13.84,1.14c4.28,1.07,7.67,1.65,10.17,1.74
			c2.49,0.09,4.46,0,5.88-0.27c1.69-0.36,2.9-0.94,3.61-1.74L423.87,80.23z"/>
		<path class="st0" d="M495.29,79.56l-2.81,14.58l-1.87,0.4c0-2.23-0.31-4.23-0.94-6.02c-0.54-1.52-1.47-2.9-2.81-4.15
			c-1.34-1.25-3.34-1.87-6.02-1.87h-16.18l-29.42,72.76c-1.6,4.01-2.39,7.13-2.34,9.36c0.04,2.23,0.42,3.88,1.14,4.95
			c0.8,1.25,2.01,2.01,3.61,2.27l-0.67,1.34h-26.48l0.54-1.34c1.87-0.27,3.75-1.02,5.62-2.27c1.69-1.07,3.48-2.72,5.35-4.95
			c1.87-2.23,3.66-5.35,5.35-9.36l29.69-72.76h-14.58c-2.85,0-5.48,0.62-7.89,1.87c-2.41,1.25-4.5,2.63-6.29,4.15
			c-2.05,1.78-3.92,3.79-5.62,6.02l-1.34-0.4l8.69-14.58H495.29z"/>
		<path class="st0" d="M500.1,79.56h26.62l-0.67,1.34c-1.87,0.27-3.75,1.03-5.62,2.27c-1.61,1.07-3.34,2.74-5.22,5.02
			c-1.87,2.27-3.66,5.46-5.35,9.56l-24.48,59.92c-1.34,3.39-1.92,6.02-1.74,7.89c0.18,1.87,0.67,3.3,1.47,4.28
			c0.98,1.07,2.27,1.74,3.88,2.01l-0.53,1.34h-26.62l0.54-1.34c1.87-0.27,3.75-1.02,5.62-2.27c1.69-1.07,3.48-2.72,5.35-4.95
			c1.87-2.23,3.66-5.35,5.35-9.36l23.94-57.78c1.69-4.1,2.47-7.27,2.34-9.5c-0.13-2.23-0.65-3.83-1.54-4.82
			c-0.89-1.25-2.23-2.01-4.01-2.27L500.1,79.56z"/>
		<path class="st0" d="M577.27,155.4c0,4.01,0.47,7.11,1.4,9.29c0.94,2.19,1.98,3.77,3.14,4.75c1.16,0.98,2.72,1.7,4.68,2.14
			l-0.8,1.6h-35.58v-1.6c1.96,0,3.66-0.09,5.08-0.27c1.42-0.18,2.99-0.58,4.68-1.2c1.69-0.62,3.25-1.52,4.68-2.67
			c1.42-1.16,2.61-2.72,3.54-4.68c0.94-1.96,1.4-4.41,1.4-7.36v-18.59c-0.63,1.16-1.52,2.43-2.67,3.81
			c-1.16,1.38-2.59,2.54-4.28,3.48c-1.69,0.94-3.66,1.45-5.88,1.54c-2.23,0.09-4.68-0.54-7.36-1.87c-3.3-1.78-6.17-2.99-8.63-3.61
			c-2.45-0.62-4.7-0.69-6.75-0.2c-2.05,0.49-4.06,1.56-6.02,3.21c-1.96,1.65-4.1,3.9-6.42,6.75l-6.15,7.76
			c-1.43,1.87-2.43,3.48-3.01,4.81c-0.58,1.34-0.83,2.52-0.74,3.54c0.09,1.03,0.45,1.87,1.07,2.54c0.62,0.67,1.34,1.23,2.14,1.67
			c1.96,0.89,4.73,1.34,8.29,1.34l-1.61,1.6h-30.9l1.47-1.6c1.96-0.27,4.1-0.98,6.42-2.14c2.05-1.07,4.43-2.67,7.16-4.81
			c2.72-2.14,5.68-5.22,8.89-9.23l48.68-59.65c2.94-3.65,4.73-6.51,5.35-8.56c0.62-2.05,0.74-3.57,0.33-4.55
			c-0.4-0.98-1.49-1.74-3.28-2.27v-0.8h11.64V155.4z M550.12,139.89c1.96,1.34,4.08,2.03,6.35,2.07c2.27,0.05,4.37-0.27,6.29-0.94
			c1.92-0.67,3.52-1.56,4.81-2.68c1.29-1.11,1.94-2.12,1.94-3.01V90.4l-41.06,51.09c3.12-3.12,6.53-4.95,10.23-5.48
			C542.39,135.47,546.2,136.77,550.12,139.89z M573.66,70.07l8.02-12.84l5.22,0.8l-12.3,12.04H573.66z"/>
		<path class="st0" d="M686.14,79.56h21.67l-0.54,1.47c-1.87,0.27-3.79,1.03-5.75,2.27c-1.61,1.07-3.34,2.72-5.22,4.95
			c-1.87,2.23-3.66,5.4-5.35,9.5l-23.54,57.51c-1.6,4.01-2.36,7.13-2.27,9.36c0.09,2.23,0.49,3.88,1.2,4.95
			c0.8,1.25,2.05,2.01,3.74,2.27l-0.53,1.34h-12.04c0.62-2.58,0.62-5.24,0-7.96c-0.62-2.72-1.63-5.62-3.01-8.69
			c-1.38-3.08-3.01-6.42-4.88-10.03s-3.79-7.56-5.75-11.84c-1.87-4.19-3.61-8.18-5.22-11.97c-1.6-3.79-2.88-7.4-3.81-10.83
			c-0.94-3.43-1.49-6.73-1.67-9.9c-0.18-3.16,0.18-6.26,1.07-9.3l-25.55,62.59c-1.7,4.01-2.5,7.13-2.41,9.36
			c0.09,2.23,0.49,3.88,1.2,4.95c0.89,1.25,2.18,2.01,3.88,2.27l-0.54,1.34h-21.67l0.54-1.34c1.87-0.27,3.75-1.02,5.62-2.27
			c1.69-1.07,3.48-2.72,5.35-4.95c1.87-2.23,3.66-5.35,5.35-9.36l23.54-57.51c1.69-4.1,2.47-7.27,2.34-9.5
			c-0.13-2.23-0.56-3.88-1.27-4.95c-0.89-1.25-2.19-2.01-3.88-2.27l0.67-1.47h12.17c-1.07,3.03-1.58,5.88-1.54,8.56
			c0.04,2.67,0.6,5.55,1.67,8.63s2.54,6.53,4.41,10.37c1.87,3.83,4.06,8.43,6.55,13.78c2.23,4.82,4.19,9.14,5.88,12.97
			c1.69,3.83,3.05,7.42,4.08,10.77c1.02,3.34,1.63,6.53,1.81,9.56c0.18,3.03-0.13,6.15-0.94,9.36l26.75-65.8
			c1.69-4.1,2.5-7.27,2.41-9.5c-0.09-2.23-0.49-3.88-1.2-4.95c-0.89-1.25-2.19-2.01-3.88-2.27L686.14,79.56z"/>
	</g>
	<g>
		<path class="st0" d="M636.51,26.74c-0.5,0.26-0.99,0.29-1.45,0.07c-0.46-0.21-0.76-0.6-0.91-1.16c-0.15-0.55-0.1-1.12,0.14-1.69
			c0.24-0.58,0.62-1,1.12-1.26c0.5-0.26,0.99-0.28,1.45-0.07s0.77,0.6,0.92,1.15c0.15,0.56,0.1,1.13-0.15,1.71
			C637.39,26.07,637.02,26.48,636.51,26.74z"/>
		<path class="st0" d="M656.45,7.06c1.09,0.54,2,1.42,2.72,2.66s1.14,2.71,1.27,4.43c0.12,1.72-0.08,3.37-0.59,4.96
			c-0.51,1.59-1.25,2.95-2.23,4.1c-0.98,1.14-2.09,1.89-3.35,2.26l-4.88,1.41l-0.02-0.29l1.39-0.4l-1.3-18.09l-1.39,0.4l-0.02-0.29
			l4.88-1.41C654.18,6.44,655.35,6.53,656.45,7.06z M654.24,25.18c0.98-0.28,1.85-0.95,2.6-1.99s1.32-2.32,1.71-3.84
			c0.39-1.51,0.52-3.1,0.4-4.77s-0.47-3.11-1.06-4.34c-0.58-1.23-1.31-2.13-2.18-2.71c-0.87-0.58-1.79-0.72-2.78-0.44l-1.21,0.35
			c-0.15,0.04-0.28,0.1-0.4,0.16c-0.12,0.07-0.22,0.17-0.28,0.32c-0.07,0.15-0.09,0.36-0.07,0.65l1.18,16.3
			c0.02,0.28,0.07,0.47,0.16,0.58c0.09,0.11,0.19,0.16,0.32,0.15c0.12,0,0.26-0.03,0.4-0.07l0.4-0.12L654.24,25.18z"/>
		<path class="st0" d="M666.08,22.43l1.43-0.25l-0.01,0.29l-4.37,0.77l0.01-0.29l1.43-0.25l0.64-18.12l-1.43,0.25l0.01-0.29
			l4.37-0.77l-0.01,0.29l-1.43,0.25L666.08,22.43z"/>
		<path class="st0" d="M672.43,5.51c0.61-0.8,1.36-1.41,2.26-1.82c0.89-0.41,1.85-0.6,2.86-0.58c0.42,0.02,0.76,0.08,1.02,0.17
			c0.26,0.1,0.51,0.21,0.74,0.35c0.23,0.13,0.5,0.25,0.79,0.38c0.23,0.1,0.45,0.13,0.65,0.09c0.21-0.04,0.36-0.18,0.47-0.44
			l0.21-0.02l-0.63,4.83l-0.24,0.02c0.15-1.29,0.07-2.3-0.26-3.06c-0.32-0.75-0.79-1.28-1.39-1.59c-0.61-0.31-1.26-0.44-1.96-0.4
			c-0.68,0.05-1.33,0.27-1.93,0.66s-1.12,0.92-1.53,1.58s-0.68,1.4-0.79,2.22c-0.08,0.66-0.04,1.21,0.12,1.65s0.42,0.8,0.75,1.09
			s0.72,0.53,1.17,0.72s0.91,0.37,1.38,0.53c0.51,0.17,1.01,0.36,1.48,0.57c0.48,0.21,0.89,0.47,1.25,0.79
			c0.36,0.32,0.63,0.72,0.8,1.22s0.21,1.13,0.11,1.9c-0.15,1.18-0.54,2.17-1.15,2.97c-0.61,0.8-1.36,1.41-2.26,1.81
			s-1.85,0.6-2.86,0.58c-0.42-0.02-0.76-0.08-1.02-0.17c-0.26-0.1-0.51-0.21-0.74-0.35c-0.22-0.13-0.49-0.27-0.8-0.4
			c-0.23-0.09-0.45-0.12-0.65-0.08c-0.21,0.04-0.36,0.18-0.47,0.44l-0.21,0.02l0.63-4.84l0.24-0.02c-0.15,1.29-0.07,2.32,0.26,3.07
			c0.32,0.75,0.79,1.28,1.39,1.59c0.61,0.31,1.26,0.44,1.96,0.39c0.68-0.04,1.33-0.25,1.94-0.65s1.12-0.92,1.53-1.58
			c0.41-0.66,0.68-1.4,0.79-2.22c0.08-0.66,0.04-1.21-0.13-1.65c-0.17-0.44-0.42-0.8-0.75-1.09c-0.33-0.29-0.72-0.53-1.17-0.72
			s-0.91-0.37-1.38-0.53c-0.51-0.17-1.01-0.36-1.49-0.57c-0.47-0.21-0.89-0.47-1.25-0.79c-0.36-0.32-0.63-0.73-0.8-1.22
			c-0.18-0.5-0.22-1.13-0.12-1.89C671.44,7.31,671.82,6.31,672.43,5.51z"/>
		<path class="st0" d="M687,10.08l0.84,0.04c0.58,0.03,1.07-0.08,1.45-0.31s0.68-0.56,0.91-0.97s0.4-0.85,0.53-1.33l0.25,0.01
			c-0.5,1.9-1,3.8-1.5,5.7l-0.25-0.01c0.12-0.48,0.18-0.93,0.17-1.35c-0.01-0.42-0.14-0.76-0.38-1.03
			c-0.25-0.27-0.66-0.41-1.24-0.44l-0.84-0.04l-2.59,9.9c-0.07,0.27-0.09,0.47-0.04,0.6s0.13,0.21,0.24,0.25
			c0.12,0.04,0.25,0.06,0.4,0.06l4.06,0.19c0.44,0.02,0.85-0.09,1.23-0.33c0.38-0.24,0.73-0.55,1.04-0.94s0.59-0.79,0.83-1.22
			c0.24-0.43,0.43-0.82,0.57-1.18l0.24,0.01l-1.6,4.04l-10.26-0.48l0.08-0.28l1.45,0.07l4.6-17.54l-1.45-0.07l0.08-0.28l10.26,0.48
			l-0.54,4.09l-0.24-0.01c0.04-0.37,0.06-0.78,0.05-1.21c-0.01-0.44-0.07-0.86-0.18-1.26s-0.29-0.74-0.53-1.01
			c-0.25-0.27-0.59-0.42-1.03-0.44l-4.06-0.19c-0.15-0.01-0.3,0-0.43,0.02s-0.26,0.09-0.37,0.21c-0.11,0.12-0.2,0.31-0.27,0.59
			C687.98,6.31,687.49,8.19,687,10.08z"/>
		<path class="st0" d="M705.72,24.21l-0.26-0.05l-2.79-18.71l-7.03,16.51l1.42,0.28l-0.12,0.26l-3.1-0.61l0.12-0.26l1.41,0.28
			l6.69-15.73c0.05-0.12,0.09-0.26,0.12-0.42c0.03-0.16,0.02-0.3-0.04-0.43c-0.06-0.13-0.19-0.21-0.4-0.25l-0.69-0.13l0.12-0.26
			l2.44,0.48c0.3,0.06,0.5,0.14,0.6,0.25c0.1,0.11,0.17,0.26,0.19,0.44l2.29,15.38l5.97-14.02l-1.42-0.28l0.12-0.26l3.1,0.61
			l-0.12,0.26l-1.42-0.28L705.72,24.21z M709.57,4.06l0.13,0.08c0.12,0.06,0.24,0.08,0.38,0.07c0.13-0.01,0.26-0.07,0.38-0.18
			l0.21-0.19l0.27,0.05l-0.65,0.62c-0.16,0.18-0.34,0.29-0.54,0.33c-0.19,0.04-0.46-0.02-0.8-0.19l-1.15-0.59l-0.14-0.08
			c-0.11-0.06-0.23-0.08-0.37-0.07c-0.14,0.01-0.26,0.07-0.38,0.18l-0.21,0.19l-0.24-0.05l0.64-0.61c0.16-0.17,0.34-0.29,0.53-0.34
			s0.45,0.01,0.79,0.18L709.57,4.06z"/>
		<path class="st0" d="M719.24,21.93l-4.21-1.49l-5,5.04l-0.3-0.11l-1.88-0.66l0.14-0.22c0.55,0.19,1.09,0.26,1.6,0.22
			c0.52-0.04,1.06-0.33,1.64-0.87l0.18-0.18c0.02-0.02,0.04-0.05,0.05-0.08l-0.01,0.02l12.47-12.63l0.31,0.11l-5.23,17.26l1.31,0.46
			l-0.15,0.24l-4.04-1.42l0.15-0.24l1.17,0.41L719.24,21.93z M721.35,14.98c0.08-0.32,0.03-0.49-0.14-0.51
			c-0.17-0.02-0.36,0.07-0.56,0.28l-5.42,5.47l4.09,1.45L721.35,14.98z"/>
		<path class="st0" d="M740.86,20.65c0.41,1.15,0.44,2.42,0.09,3.8s-1.08,2.73-2.19,4.05c-1.12,1.31-2.41,2.36-3.89,3.14
			c-1.48,0.78-2.96,1.24-4.46,1.37c-1.5,0.13-2.82-0.11-3.97-0.72l-4.48-2.4l0.19-0.22l1.28,0.68l11.71-13.85l-1.28-0.68l0.19-0.22
			l4.48,2.4C739.68,18.62,740.46,19.5,740.86,20.65z M726.63,32.07c0.9,0.48,1.99,0.61,3.26,0.39s2.57-0.74,3.9-1.55
			s2.54-1.86,3.62-3.13c1.08-1.28,1.84-2.56,2.28-3.84s0.55-2.44,0.33-3.46s-0.78-1.77-1.68-2.26l-1.11-0.59
			c-0.13-0.07-0.27-0.13-0.4-0.17s-0.28-0.03-0.43,0.03c-0.15,0.06-0.32,0.2-0.5,0.42l-10.54,12.49c-0.18,0.21-0.28,0.38-0.29,0.52
			c-0.01,0.14,0.03,0.25,0.12,0.33c0.09,0.08,0.2,0.16,0.34,0.23l0.37,0.2L726.63,32.07z"/>
		<path class="st0" d="M756.16,31.77c0.22,1.2,0.05,2.46-0.51,3.77c-0.56,1.31-1.5,2.53-2.8,3.65c-1.31,1.12-2.76,1.95-4.33,2.48
			c-1.58,0.54-3.12,0.75-4.62,0.65c-1.5-0.1-2.77-0.56-3.82-1.35c-1.04-0.79-1.67-1.79-1.89-2.99c-0.21-1.2-0.04-2.46,0.52-3.77
			c0.56-1.31,1.49-2.53,2.8-3.65c1.3-1.12,2.75-1.95,4.33-2.49s3.12-0.75,4.62-0.64c1.49,0.11,2.76,0.56,3.81,1.35
			C755.31,29.57,755.94,30.57,756.16,31.77z M750.89,28.05c-1.29,0.02-2.65,0.32-4.09,0.92c-1.44,0.59-2.79,1.43-4.05,2.52
			c-1.27,1.09-2.22,2.23-2.87,3.43c-0.65,1.2-0.94,2.32-0.89,3.36c0.06,1.04,0.49,1.88,1.31,2.5c0.81,0.62,1.87,0.92,3.16,0.91
			s2.66-0.32,4.1-0.92c1.44-0.59,2.8-1.44,4.06-2.52c1.27-1.09,2.22-2.23,2.86-3.43s0.93-2.32,0.88-3.36
			c-0.06-1.04-0.49-1.88-1.31-2.5C753.23,28.34,752.18,28.03,750.89,28.05z"/>
		<path class="st0" d="M768.76,43.74c0.07,0.73-0.08,1.41-0.46,2.03c-0.38,0.62-0.91,1.15-1.58,1.57s-1.43,0.7-2.29,0.84
			c-0.85,0.14-1.71,0.08-2.57-0.17c-0.86-0.25-1.64-0.74-2.35-1.48l-1.79-1.87c0.14,0.13,0.3,0.35,0.47,0.64
			c0.17,0.29,0.2,0.61,0.08,0.95c-0.06,0.17-0.13,0.33-0.19,0.5c-0.85,2.35-1.7,4.7-2.55,7.05c-0.21,0.54-0.11,1.05,0.29,1.52
			l-0.25,0.15c-0.09-0.09-0.22-0.23-0.4-0.42c-0.18-0.19-0.36-0.38-0.54-0.56c-0.18-0.19-0.3-0.32-0.37-0.39
			c-0.25-0.26-0.4-0.49-0.45-0.69c-0.05-0.2-0.02-0.44,0.08-0.72c0.96-2.64,1.91-5.27,2.87-7.91c0.1-0.27,0.19-0.53,0.29-0.8
			l-7.59,4.71l0.99,1.04l-0.25,0.15l-0.99-1.04l-1.06-1.11l-1-1.05l0.25-0.15l1,1.04l15.42-9.55l-1-1.04l0.25-0.15l4.52,4.72
			C768.29,42.28,768.68,43.01,768.76,43.74z M758.06,43.35c-0.24,0.15-0.39,0.29-0.45,0.4s-0.05,0.23,0.01,0.35
			c0.06,0.11,0.14,0.22,0.25,0.33l1.41,1.48c0.58,0.61,1.25,0.99,2,1.16s1.52,0.18,2.29,0.02c0.77-0.15,1.47-0.43,2.11-0.82
			c0.63-0.39,1.14-0.87,1.53-1.43c0.39-0.56,0.58-1.16,0.56-1.78c-0.02-0.63-0.32-1.25-0.89-1.85l-1.42-1.48
			c-0.11-0.11-0.22-0.2-0.33-0.28c-0.12-0.08-0.25-0.11-0.41-0.1c-0.16,0.01-0.36,0.09-0.6,0.24L758.06,43.35z"/>
		<path class="st0" d="M784.79,67.98l-4.58,2.17l-0.12-0.21c0.56-0.25,1.11-0.57,1.65-0.96c0.55-0.38,1-0.83,1.36-1.33
			c0.32-0.5,0.44-1.04,0.35-1.63c-0.09-0.59-0.3-1.17-0.64-1.74c-0.58-0.95-1.32-1.65-2.24-2.1c-0.91-0.46-1.9-0.72-2.97-0.8
			c-1.07-0.08-2.13-0.04-3.18,0.13c-1.05,0.17-2.01,0.39-2.87,0.68c-0.81,0.25-1.66,0.61-2.53,1.08c-0.88,0.46-1.66,1.01-2.34,1.65
			c-0.68,0.63-1.14,1.34-1.38,2.12c-0.23,0.78-0.11,1.61,0.38,2.48c0.45,0.76,0.96,1.28,1.53,1.56c0.57,0.28,1.19,0.39,1.86,0.33
			c0.67-0.06,1.35-0.2,2.05-0.43l4.37-1.43l-0.72-1.25l0.27-0.08l2.21,3.83l-0.27,0.08l-0.72-1.25l-6.89,2.24
			c-0.9-0.45-1.71-0.96-2.42-1.56c-0.71-0.59-1.33-1.34-1.85-2.25c-0.57-0.98-0.74-2.01-0.52-3.09s0.84-2.08,1.87-3.03
			c1.03-0.94,2.48-1.72,4.34-2.33c1.35-0.45,2.82-0.71,4.41-0.77s3.09,0.19,4.51,0.76s2.54,1.57,3.37,2.99
			c0.28,0.52,0.48,1.04,0.6,1.56c0.12,0.52,0.18,1.03,0.21,1.52c0.02,0.25,0.09,0.46,0.21,0.63s0.32,0.24,0.59,0.22L784.79,67.98z"
			/>
		<path class="st0" d="M790.25,82.23c-0.21,0.71-0.61,1.27-1.2,1.71c-0.59,0.43-1.28,0.71-2.06,0.85c-0.78,0.13-1.59,0.1-2.43-0.1
			c-0.84-0.2-1.61-0.58-2.31-1.13c-0.7-0.56-1.24-1.31-1.61-2.27l-0.95-2.41c0.08,0.18,0.14,0.43,0.19,0.77
			c0.05,0.33-0.05,0.64-0.29,0.9c-0.12,0.13-0.24,0.26-0.37,0.39c-1.68,1.85-3.36,3.7-5.04,5.55c-0.4,0.42-0.5,0.92-0.31,1.51
			l-0.28,0.04c-0.05-0.12-0.12-0.3-0.21-0.54c-0.1-0.24-0.19-0.49-0.29-0.73c-0.09-0.24-0.16-0.41-0.2-0.5
			c-0.13-0.33-0.18-0.6-0.15-0.81c0.03-0.21,0.15-0.42,0.35-0.64c1.89-2.08,3.77-4.15,5.67-6.22c0.19-0.21,0.38-0.42,0.57-0.63
			l-8.81,1.46l0.52,1.34l-0.28,0.04l-0.52-1.34l-0.56-1.43l-0.53-1.35l0.28-0.04l0.53,1.35l17.89-2.96l-0.53-1.35l0.28-0.04
			l2.39,6.09C790.38,80.69,790.46,81.52,790.25,82.23z M780.51,77.78c-0.28,0.05-0.47,0.11-0.57,0.2c-0.1,0.09-0.14,0.2-0.13,0.32
			c0.01,0.13,0.05,0.26,0.1,0.4l0.75,1.9c0.31,0.78,0.77,1.39,1.41,1.83c0.63,0.44,1.33,0.74,2.11,0.89s1.53,0.17,2.26,0.04
			s1.39-0.37,1.96-0.74s0.97-0.85,1.2-1.44c0.22-0.59,0.18-1.27-0.12-2.05l-0.75-1.9c-0.06-0.14-0.12-0.27-0.2-0.39
			s-0.19-0.2-0.34-0.25s-0.37-0.05-0.65,0L780.51,77.78z"/>
		<path class="st0" d="M782.6,98.02l-0.98-4.36l-6.92-1.55l-0.07-0.31l-0.44-1.95l0.26,0.01c0.14,0.57,0.36,1.06,0.66,1.48
			s0.84,0.73,1.61,0.93l0.25,0.06c0.03,0,0.06,0,0.09,0l-0.02,0.01l17.33,3.84l0.07,0.32l-17.4,4.75l0.3,1.35l-0.29,0l-0.94-4.17
			l0.29,0l0.27,1.21L782.6,98.02z M789.6,96.11c0.32-0.11,0.44-0.24,0.36-0.39c-0.07-0.16-0.25-0.26-0.53-0.32l-7.51-1.68l0.95,4.24
			L789.6,96.11z M798.4,97.09l0.16,0.69l-3.07-1.47l-0.05-0.24L798.4,97.09z"/>
		<path class="st0" d="M789.09,109.05l0.06,0.84c0.04,0.58,0.21,1.05,0.49,1.39c0.28,0.35,0.64,0.61,1.07,0.78
			c0.43,0.17,0.9,0.29,1.38,0.36l0.02,0.25c-1.95-0.26-3.9-0.52-5.84-0.78l-0.02-0.25c0.49,0.06,0.94,0.06,1.36,0
			c0.42-0.06,0.74-0.23,0.97-0.51s0.33-0.71,0.28-1.29l-0.07-0.84l-11.03-1.46l0.11,1.43l-0.28-0.04l-0.34-4.41l0.28,0.04l0.11,1.44
			l17.98,2.39l-0.11-1.44l0.28,0.04l0.8,10.24l-4.13-0.02l-0.02-0.25c0.37,0,0.78-0.02,1.21-0.09c0.43-0.06,0.84-0.17,1.23-0.33
			c0.39-0.16,0.7-0.38,0.94-0.65s0.34-0.64,0.31-1.08l-0.32-4.05c-0.01-0.15-0.04-0.29-0.08-0.43c-0.04-0.13-0.13-0.25-0.26-0.34
			s-0.34-0.16-0.62-0.19C792.95,109.56,791.02,109.3,789.09,109.05z"/>
		<path class="st0" d="M778.21,120.37l-0.03,1.45l-0.28-0.07l0.1-4.43l0.28,0.07l-0.03,1.45l17.65,4.15l0.03-1.45l0.28,0.07
			l-0.1,4.43l-0.28-0.07l0.03-1.45L778.21,120.37z"/>
		<path class="st0" d="M777.99,132.8c0.41,0.96,1.17,2.03,2.3,3.21l-0.04,0.34c-1.19-1.17-2.03-2.28-2.52-3.32
			c-0.49-1.04-0.68-2.04-0.57-3.01c0.14-1.15,0.53-2.03,1.19-2.65c0.66-0.61,1.47-1.01,2.43-1.2c0.96-0.19,1.98-0.22,3.05-0.1
			c1.07,0.13,2.06,0.35,2.97,0.67c1.36,0.45,2.69,1.11,3.98,1.96c1.29,0.85,2.33,1.92,3.11,3.2c0.78,1.28,1.08,2.78,0.89,4.5
			c-0.07,0.55-0.21,1.03-0.41,1.43c-0.2,0.4-0.44,0.78-0.7,1.16c-0.03,0.05-0.06,0.09-0.08,0.12c-0.15,0.21-0.22,0.42-0.22,0.63
			s0.11,0.39,0.34,0.55l-0.03,0.23l-4.96-1.05l0.03-0.25c0.94,0.22,1.84,0.29,2.68,0.19c0.84-0.09,1.53-0.4,2.08-0.92
			c0.55-0.52,0.85-1.31,0.92-2.38c0.04-1.45-0.34-2.68-1.16-3.7s-1.84-1.87-3.06-2.54c-1.23-0.67-2.43-1.2-3.61-1.59
			c-0.72-0.25-1.54-0.46-2.48-0.61c-0.93-0.16-1.85-0.2-2.75-0.13s-1.68,0.31-2.35,0.72s-1.11,1.05-1.34,1.93
			C777.48,130.97,777.58,131.84,777.99,132.8z"/>
		<path class="st0" d="M788.64,155.67c-1.04,0.64-2.27,0.93-3.7,0.89c-1.43-0.05-2.9-0.48-4.42-1.28c-1.52-0.82-2.81-1.86-3.89-3.14
			c-1.07-1.28-1.83-2.63-2.28-4.07c-0.45-1.44-0.49-2.79-0.13-4.05c0.36-1.26,1.06-2.21,2.1-2.84c1.04-0.63,2.28-0.93,3.7-0.88
			c1.43,0.04,2.9,0.47,4.42,1.29c1.52,0.81,2.82,1.85,3.89,3.13c1.07,1.28,1.83,2.64,2.27,4.07s0.48,2.78,0.12,4.04
			C790.38,154.08,789.68,155.03,788.64,155.67z M790.19,149.41c-0.48-1.2-1.26-2.36-2.34-3.48c-1.07-1.12-2.35-2.08-3.82-2.86
			c-1.47-0.79-2.89-1.26-4.24-1.43c-1.35-0.17-2.5-0.04-3.46,0.39c-0.95,0.43-1.57,1.14-1.85,2.12c-0.28,0.98-0.18,2.08,0.3,3.27
			c0.48,1.2,1.26,2.36,2.34,3.49c1.08,1.13,2.35,2.08,3.83,2.87c1.47,0.78,2.89,1.26,4.24,1.42c1.35,0.16,2.5,0.03,3.45-0.4
			c0.95-0.43,1.57-1.14,1.85-2.12C790.77,151.7,790.67,150.61,790.19,149.41z"/>
		<path class="st0" d="M771.17,165.67c0.26-0.5,0.65-0.8,1.14-0.89c0.5-0.09,0.97,0.05,1.41,0.43c0.44,0.37,0.72,0.86,0.85,1.47
			c0.13,0.61,0.06,1.17-0.2,1.67s-0.65,0.8-1.15,0.89c-0.5,0.09-0.97-0.05-1.41-0.41c-0.44-0.38-0.73-0.87-0.85-1.48
			S770.91,166.17,771.17,165.67z"/>
	</g>
</g>
</svg>
